<svg xmlns="http://www.w3.org/2000/svg" viewBox="0 0 512 512">
  <rect width="512" height="512" rx="96" fill="#f5f0e8"/>
  <g transform="translate(256,256)" fill="none" stroke="#0a0a0a" stroke-width="14" stroke-linecap="round" stroke-linejoin="round">
    <!-- Circle -->
    <circle cx="0" cy="0" r="168" />
    <!-- Coffee cup -->
    <path d="M-56,-20 L-56,40 Q-56,60 -36,60 L36,60 Q56,60 56,40 L56,-20 Z" fill="#0a0a0a" />
    <!-- Steam -->
    <path d="M-10,-50 Q-10,-70 0,-75 Q10,-80 10,-100" stroke-width="10" />
    <!-- Hills/fields -->
    <path d="M-140,60 Q-80,100 -40,60 Q0,20 40,60 Q80,100 140,60" />
    <path d="M-100,90 L-100,140 M-60,100 L-60,140 M0,100 L0,140 M60,100 L60,140 M100,90 L100,140" stroke-width="8" />
  </g>
</svg>
