<svg xmlns="http://www.w3.org/2000/svg" viewBox="0 0 512 512">
  <rect width="512" height="512" rx="96" fill="#6f4e37"/>
  <g transform="translate(256,256)">
    <!-- Coffee cup -->
    <path d="M-80,-40 L-80,60 Q-80,100 -40,100 L40,100 Q80,100 80,60 L80,-40 Z" fill="#fdf8f6" opacity="0.95"/>
    <!-- Cup handle -->
    <path d="M80,-10 Q120,-10 120,30 Q120,70 80,70" fill="none" stroke="#fdf8f6" stroke-width="16" stroke-linecap="round" opacity="0.95"/>
    <!-- Steam -->
    <path d="M-30,-60 Q-30,-90 -10,-90 Q10,-90 10,-120" fill="none" stroke="#fef3c7" stroke-width="8" stroke-linecap="round" opacity="0.7"/>
    <path d="M10,-50 Q10,-80 30,-80 Q50,-80 50,-110" fill="none" stroke="#fef3c7" stroke-width="8" stroke-linecap="round" opacity="0.7"/>
    <!-- Saucer -->
    <path d="M-100,105 Q-100,120 0,120 Q100,120 100,105" fill="#fdf8f6" opacity="0.6"/>
  </g>
</svg>
